<svg height="512pt" viewBox="0 0 512 512" width="512pt" xmlns="http://www.w3.org/2000/svg"><path d="m512 48v400c0 35.34375-28.65625 64-64 64h-384c-35.34375 0-64-28.65625-64-64v-400zm0 0" fill="#c9ef3f"/><path d="m480 352c0 70.691406-57.308594 128-128 128s-128-57.308594-128-128 57.308594-128 128-128 128 57.308594 128 128zm0 0" fill="#badb31"/><path d="m396.636719 419.359375 22.71875-22.714844 92.636719 92.632813-22.71875 22.71875zm0 0" fill="#3c3c47"/><g fill="#77959e"><path d="m208 208h96v96h-96zm0 0"/><path d="m80 208h96v96h-96zm0 0"/><path d="m80 336h96v96h-96zm0 0"/></g><path d="m419.3125 396.6875-22.625 22.625 33.679688 33.679688c8.464843-6.578126 16.046874-14.175782 22.625-22.625zm0 0" fill="#202026"/><path d="m304 304v-70.574219c-32.015625 13.007813-57.566406 38.558594-70.574219 70.574219zm0 0" fill="#62808c"/><path d="m448 352c0 53.019531-42.980469 96-96 96s-96-42.980469-96-96 42.980469-96 96-96 96 42.980469 96 96zm0 0" fill="#e4edfb"/><path d="m64 0h32v64h-32zm0 0" fill="#708299"/><path d="m416 0h32v64h-32zm0 0" fill="#708299"/><path d="m0 144h512v48h-512zm0 0" fill="#badb31"/><path d="m0 48h512v112h-512zm0 0" fill="#ccdade"/><path d="m368 304h32v32h-32zm0 0" fill="#fff"/><path d="m110.671875 85.328125h32v32h-32zm0 0" fill="#fff"/><path d="m46.671875 85.328125h32v32h-32zm0 0" fill="#fff"/></svg>